<svg xmlns="http://www.w3.org/2000/svg" xmlns:xlink="http://www.w3.org/1999/xlink" width="500" zoomAndPan="magnify" viewBox="0 0 375 374.999991" height="500" preserveAspectRatio="xMidYMid meet" version="1.0"><defs><g/><clipPath id="69a43d1ecc"><path d="M 62 130 L 368 130 L 368 179 L 62 179 Z M 62 130 " clip-rule="nonzero"/></clipPath><clipPath id="580c1abafd"><path d="M 60.019531 129.425781 L 364.589844 109.039062 L 368.796875 171.898438 L 64.230469 192.285156 Z M 60.019531 129.425781 " clip-rule="nonzero"/></clipPath><clipPath id="0e433d2cdb"><path d="M 64.222656 192.214844 L 368.792969 171.828125 L 364.585938 108.96875 L 60.015625 129.355469 Z M 64.222656 192.214844 " clip-rule="nonzero"/></clipPath></defs><rect x="-37.5" width="450" fill="#ffffff" y="-37.499999" height="449.999989" fill-opacity="1"/><rect x="-37.5" width="450" fill="#ffffff" y="-37.499999" height="449.999989" fill-opacity="1"/><g fill="#101010" fill-opacity="1"><g transform="translate(30.203349, 232.373447)"><g><path d="M 107.078125 -100.1875 C 108.765625 -91.65625 109.84375 -81.425781 110.3125 -69.5 C 110.425781 -60.5625 109.722656 -51.140625 108.203125 -41.234375 C 106.679688 -31.335938 103.929688 -21.441406 99.953125 -11.546875 C 97.429688 -5.722656 94.488281 -0.171875 91.125 5.109375 C 87.769531 10.390625 83.796875 15.234375 79.203125 19.640625 C 75.660156 23.117188 71.734375 26 67.421875 28.28125 C 62.679688 30.8125 57.5625 32.3125 52.0625 32.78125 C 46.5625 33.257812 41.132812 32.5 35.78125 30.5 C 30.4375 28.5 25.566406 25.046875 21.171875 20.140625 C 17.160156 15.492188 13.863281 10.382812 11.28125 4.8125 C 5.457031 -8.070312 2.035156 -21.519531 1.015625 -35.53125 C 0.335938 -43.945312 0.519531 -52.273438 1.5625 -60.515625 C 2.613281 -68.753906 4.664062 -76.863281 7.71875 -84.84375 C 8.945312 -88.164062 10.378906 -91.382812 12.015625 -94.5 C 13.035156 -96.351562 13.128906 -98.21875 12.296875 -100.09375 C 9.460938 -106.875 7.765625 -113.929688 7.203125 -121.265625 C 6.742188 -128.378906 7.816406 -135.066406 10.421875 -141.328125 C 13.023438 -147.597656 16.664062 -152.9375 21.34375 -157.34375 C 26.03125 -161.75 31.285156 -164.722656 37.109375 -166.265625 C 51.273438 -169.929688 64.320312 -167.46875 76.25 -158.875 C 83.644531 -153.445312 89.515625 -146.671875 93.859375 -138.546875 C 97.085938 -132.503906 99.753906 -126.28125 101.859375 -119.875 C 103.972656 -113.46875 105.710938 -106.90625 107.078125 -100.1875 Z M 94.125 -17.96875 C 96.90625 -25.769531 98.910156 -33.664062 100.140625 -41.65625 C 101.367188 -49.65625 102.046875 -57.644531 102.171875 -65.625 C 102.171875 -82.226562 99.90625 -98.289062 95.375 -113.8125 C 93.925781 -118.625 92.238281 -123.335938 90.3125 -127.953125 C 88.394531 -132.578125 86.046875 -137.015625 83.265625 -141.265625 C 80.742188 -145.210938 77.828125 -148.753906 74.515625 -151.890625 C 71.203125 -155.035156 67.40625 -157.671875 63.125 -159.796875 C 58.101562 -162.296875 53.085938 -163.53125 48.078125 -163.5 C 43.078125 -163.46875 38.203125 -161.816406 33.453125 -158.546875 C 27.421875 -154.421875 22.878906 -149.445312 19.828125 -143.625 C 16.773438 -137.800781 15.390625 -131.222656 15.671875 -123.890625 C 16.347656 -105.253906 23.722656 -89.726562 37.796875 -77.3125 C 42.296875 -73.332031 47.085938 -69.878906 52.171875 -66.953125 C 57.253906 -64.023438 62.675781 -61.765625 68.4375 -60.171875 C 68.6875 -60.078125 68.945312 -60 69.21875 -59.9375 C 69.78125 -59.875 70.3125 -59.742188 70.8125 -59.546875 C 71.320312 -59.347656 71.78125 -59.046875 72.1875 -58.640625 C 72.394531 -58.421875 72.546875 -58.15625 72.640625 -57.84375 C 72.734375 -57.539062 72.78125 -57.253906 72.78125 -56.984375 C 72.71875 -56.796875 72.601562 -56.5625 72.4375 -56.28125 C 72.269531 -56.007812 72.078125 -55.8125 71.859375 -55.6875 C 70.722656 -55.070312 69.582031 -55.039062 68.4375 -55.59375 C 66.59375 -56.457031 64.679688 -57.132812 62.703125 -57.625 C 62.367188 -57.6875 62.078125 -57.75 61.828125 -57.8125 C 44.390625 -62.488281 30.359375 -72.039062 19.734375 -86.46875 C 19.578125 -86.675781 19.4375 -86.890625 19.3125 -87.109375 C 19.101562 -87.566406 18.828125 -87.945312 18.484375 -88.25 C 18.140625 -88.5625 17.707031 -88.644531 17.1875 -88.5 C 16.789062 -88.4375 16.503906 -88.25 16.328125 -87.9375 C 16.160156 -87.632812 16.03125 -87.28125 15.9375 -86.875 C 15.875 -86.601562 15.785156 -86.375 15.671875 -86.1875 C 15.453125 -85.6875 15.28125 -85.175781 15.15625 -84.65625 C 15.09375 -84.4375 14.984375 -84.191406 14.828125 -83.921875 C 10.578125 -71.722656 8.382812 -59.503906 8.25 -47.265625 C 8.113281 -35.035156 9.878906 -22.757812 13.546875 -10.4375 C 14.804688 -6.03125 16.367188 -1.78125 18.234375 2.3125 C 20.097656 6.40625 22.351562 10.316406 25 14.046875 C 28.113281 18.453125 31.976562 22.054688 36.59375 24.859375 C 43.25 28.929688 50.226562 29.609375 57.53125 26.890625 C 61.75 25.203125 65.613281 22.925781 69.125 20.0625 C 72.519531 17.28125 75.570312 14.195312 78.28125 10.8125 C 81.726562 6.46875 84.757812 1.878906 87.375 -2.953125 C 90 -7.796875 92.25 -12.800781 94.125 -17.96875 Z M 94.125 -17.96875 "/></g></g></g><g fill="#101010" fill-opacity="1"><g transform="translate(146.88772, 232.373447)"><g><path d="M 33.359375 -21.53125 C 33.890625 -22.789062 34.460938 -23.421875 35.078125 -23.421875 C 35.691406 -23.421875 35.890625 -22.789062 35.671875 -21.53125 C 34.660156 -18.394531 33.445312 -15.382812 32.03125 -12.5 C 30.613281 -9.613281 28.6875 -7.035156 26.25 -4.765625 C 24.394531 -2.910156 22.191406 -1.722656 19.640625 -1.203125 C 16.160156 -0.710938 13.285156 -1.128906 11.015625 -2.453125 C 8.753906 -3.773438 6.960938 -5.675781 5.640625 -8.15625 C 4.316406 -10.632812 3.328125 -13.34375 2.671875 -16.28125 C 2.023438 -19.226562 1.613281 -22.085938 1.4375 -24.859375 C 0.9375 -30.097656 0.570312 -36.984375 0.34375 -45.515625 C 0.113281 -54.046875 0.195312 -63.070312 0.59375 -72.59375 C 1 -82.113281 1.929688 -90.941406 3.390625 -99.078125 C 4.859375 -107.210938 7.007812 -113.515625 9.84375 -117.984375 C 11.476562 -120.171875 13.378906 -121.273438 15.546875 -121.296875 C 17.722656 -121.328125 19.65625 -120.328125 21.34375 -118.296875 C 22.488281 -116.722656 23.351562 -115.054688 23.9375 -113.296875 C 24.519531 -111.546875 24.90625 -109.765625 25.09375 -107.953125 C 25.707031 -101.691406 25.628906 -95.085938 24.859375 -88.140625 C 24.085938 -81.203125 22.867188 -73.785156 21.203125 -65.890625 C 19.546875 -58.003906 17.5625 -51.054688 15.25 -45.046875 C 12.9375 -39.046875 11.007812 -34.289062 9.46875 -30.78125 C 8.632812 -29.363281 8.328125 -27.222656 8.546875 -24.359375 C 8.828125 -21.242188 9.421875 -17.988281 10.328125 -14.59375 C 11.234375 -11.207031 12.503906 -8.53125 14.140625 -6.5625 C 15.679688 -4.925781 17.40625 -4.414062 19.3125 -5.03125 C 21.226562 -5.65625 23.128906 -6.953125 25.015625 -8.921875 C 26.910156 -10.890625 28.582031 -13.035156 30.03125 -15.359375 C 31.476562 -17.691406 32.585938 -19.75 33.359375 -21.53125 Z M 8.734375 -68.8125 C 8.546875 -66.78125 8.367188 -63.707031 8.203125 -59.59375 C 8.035156 -55.476562 7.875 -51.296875 7.71875 -47.046875 C 7.59375 -42.296875 7.453125 -38.597656 7.296875 -35.953125 C 8.804688 -39.335938 10.5625 -44.265625 12.5625 -50.734375 C 14.570312 -57.203125 16.398438 -64.828125 18.046875 -73.609375 C 19.691406 -82.390625 20.757812 -91.894531 21.25 -102.125 C 20.976562 -108.101562 20.265625 -112.15625 19.109375 -114.28125 C 17.953125 -116.40625 16.695312 -116.585938 15.34375 -114.828125 C 13.988281 -113.078125 12.910156 -109.382812 12.109375 -103.75 C 10.878906 -94.414062 9.925781 -85.0625 9.25 -75.6875 C 9.0625 -73.382812 8.890625 -71.09375 8.734375 -68.8125 Z M 8.734375 -68.8125 "/></g></g></g><g fill="#101010" fill-opacity="1"><g transform="translate(179.744197, 232.373447)"><g><path d="M 23.984375 -18.75 C 23.023438 -16.78125 21.398438 -14.59375 19.109375 -12.1875 C 16.816406 -9.789062 14.210938 -8.269531 11.296875 -7.625 C 8.390625 -6.976562 5.609375 -7.976562 2.953125 -10.625 C 1.941406 -11.800781 1.195312 -13.148438 0.71875 -14.671875 C 0.238281 -16.191406 0.0625 -17.691406 0.1875 -19.171875 C 0.1875 -19.578125 0.1875 -20.085938 0.1875 -20.703125 C 0.1875 -22.273438 0.253906 -24.09375 0.390625 -26.15625 C 0.523438 -28.21875 0.832031 -30.082031 1.3125 -31.75 C 1.789062 -33.414062 2.539062 -34.414062 3.5625 -34.75 C 6.488281 -35.488281 8.070312 -34.472656 8.3125 -31.703125 C 8.3125 -30.804688 8.28125 -29.910156 8.21875 -29.015625 C 8.164062 -28.554688 8.140625 -28.128906 8.140625 -27.734375 C 8.078125 -26.429688 8.015625 -25.132812 7.953125 -23.84375 C 7.953125 -22.820312 7.90625 -21.804688 7.8125 -20.796875 C 7.75 -16.328125 8.75 -13.664062 10.8125 -12.8125 C 12.875 -11.96875 15.226562 -12.867188 17.875 -15.515625 C 20.53125 -18.171875 22.265625 -20.375 23.078125 -22.125 C 23.898438 -23.882812 24.492188 -24.253906 24.859375 -23.234375 C 25.234375 -22.222656 24.941406 -20.726562 23.984375 -18.75 Z M 7.71875 -44.265625 C 7.3125 -43.929688 6.820312 -43.71875 6.25 -43.625 C 5.6875 -43.53125 5.191406 -43.578125 4.765625 -43.765625 C 4.421875 -44.035156 4.203125 -44.394531 4.109375 -44.84375 C 4.015625 -45.289062 3.96875 -45.820312 3.96875 -46.4375 C 3.96875 -46.5625 4 -46.6875 4.0625 -46.8125 C 4.125 -47.363281 4.265625 -47.914062 4.484375 -48.46875 C 5.097656 -49.945312 6.375 -50.628906 8.3125 -50.515625 C 8.988281 -50.421875 9.519531 -50.140625 9.90625 -49.671875 C 10.289062 -49.210938 10.378906 -48.675781 10.171875 -48.0625 C 9.703125 -46.550781 8.882812 -45.285156 7.71875 -44.265625 Z M 7.71875 -44.265625 "/></g></g></g><g fill="#101010" fill-opacity="1"><g transform="translate(202.434117, 232.373447)"><g><path d="M 34.15625 -24.171875 C 36.457031 -24.785156 37.382812 -24.753906 36.9375 -24.078125 C 36.5 -23.398438 35 -22.722656 32.4375 -22.046875 C 30.53125 -21.546875 28.882812 -21.296875 27.5 -21.296875 C 26.113281 -21.296875 24.847656 -21.742188 23.703125 -22.640625 C 23.429688 -21.691406 23.15625 -20.769531 22.875 -19.875 C 22.320312 -18.050781 21.78125 -16.320312 21.25 -14.6875 C 20.570312 -12.320312 19.585938 -10.09375 18.296875 -8 C 17.222656 -6.238281 15.800781 -5.050781 14.03125 -4.4375 C 12.257812 -3.820312 10.523438 -3.835938 8.828125 -4.484375 C 7.128906 -5.128906 5.742188 -6.4375 4.671875 -8.40625 C 3.316406 -11.238281 2.40625 -14.210938 1.9375 -17.328125 C 0.925781 -21.953125 0.3125 -26.632812 0.09375 -31.375 C 0.03125 -32.457031 0.0625 -33.503906 0.1875 -34.515625 C 0.40625 -35.867188 1.25 -36.546875 2.71875 -36.546875 C 3.832031 -36.484375 4.503906 -35.828125 4.734375 -34.578125 C 4.960938 -33.335938 5.078125 -32.070312 5.078125 -30.78125 C 5.078125 -30.28125 5.109375 -29.863281 5.171875 -29.53125 C 5.171875 -29.0625 5.320312 -27.523438 5.625 -24.921875 C 5.9375 -22.328125 6.398438 -19.550781 7.015625 -16.59375 C 7.640625 -13.632812 8.390625 -11.375 9.265625 -9.8125 C 10.140625 -8.257812 11.179688 -8.300781 12.390625 -9.9375 C 13.554688 -11.6875 14.367188 -13.582031 14.828125 -15.625 C 16.003906 -19.6875 17.097656 -23.75 18.109375 -27.8125 C 18.515625 -29.726562 19.285156 -31.457031 20.421875 -33 C 21.660156 -34.507812 23.265625 -34.878906 25.234375 -34.109375 C 25.691406 -33.984375 26.054688 -33.75 26.328125 -33.40625 C 26.609375 -33.070312 26.707031 -32.703125 26.625 -32.296875 C 26.5625 -31.804688 26.46875 -31.300781 26.34375 -30.78125 C 26 -29.757812 25.742188 -28.738281 25.578125 -27.71875 C 25.410156 -26.707031 25.460938 -25.925781 25.734375 -25.375 C 26.203125 -24.695312 27.3125 -24.222656 29.0625 -23.953125 C 30.820312 -23.691406 32.519531 -23.765625 34.15625 -24.171875 Z M 34.15625 -24.171875 "/></g></g></g><g fill="#101010" fill-opacity="1"><g transform="translate(236.676944, 232.373447)"><g><path d="M 23.984375 -18.75 C 23.023438 -16.78125 21.398438 -14.59375 19.109375 -12.1875 C 16.816406 -9.789062 14.210938 -8.269531 11.296875 -7.625 C 8.390625 -6.976562 5.609375 -7.976562 2.953125 -10.625 C 1.941406 -11.800781 1.195312 -13.148438 0.71875 -14.671875 C 0.238281 -16.191406 0.0625 -17.691406 0.1875 -19.171875 C 0.1875 -19.578125 0.1875 -20.085938 0.1875 -20.703125 C 0.1875 -22.273438 0.253906 -24.09375 0.390625 -26.15625 C 0.523438 -28.21875 0.832031 -30.082031 1.3125 -31.75 C 1.789062 -33.414062 2.539062 -34.414062 3.5625 -34.75 C 6.488281 -35.488281 8.070312 -34.472656 8.3125 -31.703125 C 8.3125 -30.804688 8.28125 -29.910156 8.21875 -29.015625 C 8.164062 -28.554688 8.140625 -28.128906 8.140625 -27.734375 C 8.078125 -26.429688 8.015625 -25.132812 7.953125 -23.84375 C 7.953125 -22.820312 7.90625 -21.804688 7.8125 -20.796875 C 7.75 -16.328125 8.75 -13.664062 10.8125 -12.8125 C 12.875 -11.96875 15.226562 -12.867188 17.875 -15.515625 C 20.53125 -18.171875 22.265625 -20.375 23.078125 -22.125 C 23.898438 -23.882812 24.492188 -24.253906 24.859375 -23.234375 C 25.234375 -22.222656 24.941406 -20.726562 23.984375 -18.75 Z M 7.71875 -44.265625 C 7.3125 -43.929688 6.820312 -43.71875 6.25 -43.625 C 5.6875 -43.53125 5.191406 -43.578125 4.765625 -43.765625 C 4.421875 -44.035156 4.203125 -44.394531 4.109375 -44.84375 C 4.015625 -45.289062 3.96875 -45.820312 3.96875 -46.4375 C 3.96875 -46.5625 4 -46.6875 4.0625 -46.8125 C 4.125 -47.363281 4.265625 -47.914062 4.484375 -48.46875 C 5.097656 -49.945312 6.375 -50.628906 8.3125 -50.515625 C 8.988281 -50.421875 9.519531 -50.140625 9.90625 -49.671875 C 10.289062 -49.210938 10.378906 -48.675781 10.171875 -48.0625 C 9.703125 -46.550781 8.882812 -45.285156 7.71875 -44.265625 Z M 7.71875 -44.265625 "/></g></g></g><g fill="#101010" fill-opacity="1"><g transform="translate(259.366863, 232.373447)"><g><path d="M 52.28125 -23.75 C 51.4375 -21.164062 49.757812 -18.203125 47.25 -14.859375 C 44.738281 -11.515625 41.601562 -9.363281 37.84375 -8.40625 C 34.082031 -7.457031 30.832031 -7.585938 28.09375 -8.796875 C 25.351562 -10.015625 23.84375 -13.273438 23.5625 -18.578125 C 20.457031 -12.535156 17.492188 -8.664062 14.671875 -6.96875 C 11.847656 -5.28125 8.914062 -4.632812 5.875 -5.03125 C 2.414062 -5.59375 0.0820312 -6.9375 -1.125 -9.0625 C -2.34375 -11.1875 -2.75 -13.640625 -2.34375 -16.421875 C -1.945312 -19.210938 -1.101562 -21.890625 0.1875 -24.453125 C 1.195312 -26.359375 2.601562 -28.125 4.40625 -29.75 C 6.207031 -31.382812 8.097656 -32.664062 10.078125 -33.59375 C 12.503906 -34.820312 14.953125 -35.40625 17.421875 -35.34375 C 19.890625 -35.289062 22.523438 -34.476562 25.328125 -32.90625 C 25.390625 -32.84375 25.421875 -32.90625 25.421875 -33.09375 C 25.421875 -33.363281 25.488281 -33.707031 25.625 -34.125 C 25.757812 -34.539062 26 -34.875 26.34375 -35.125 C 27.269531 -35.800781 28.363281 -36.140625 29.625 -36.140625 C 30.882812 -36.140625 31.851562 -35.507812 32.53125 -34.25 C 32.65625 -32.613281 32.488281 -30.53125 32.03125 -28 C 31.007812 -22.457031 31.003906 -18.46875 32.015625 -16.03125 C 33.035156 -13.601562 34.832031 -12.472656 37.40625 -12.640625 C 39.976562 -12.804688 43.3125 -15.347656 47.40625 -20.265625 C 51.507812 -25.179688 53.132812 -26.34375 52.28125 -23.75 Z M 6.796875 -10.71875 C 8.210938 -9.707031 9.835938 -9.847656 11.671875 -11.140625 C 13.503906 -12.429688 15.265625 -14.257812 16.953125 -16.625 C 18.648438 -19 20.078125 -21.375 21.234375 -23.75 C 22.390625 -26.125 23.03125 -27.878906 23.15625 -29.015625 C 19.695312 -30.867188 16.734375 -31.1875 14.265625 -29.96875 C 11.804688 -28.75 9.84375 -26.757812 8.375 -24 C 6.914062 -21.25 6.046875 -18.570312 5.765625 -15.96875 C 5.492188 -13.363281 5.835938 -11.613281 6.796875 -10.71875 Z M 6.796875 -10.71875 "/></g></g></g><g clip-path="url(#69a43d1ecc)"><g clip-path="url(#580c1abafd)"><g clip-path="url(#0e433d2cdb)"><path fill="#101010" d="M 66.15625 153.527344 C 65.417969 152.742188 64.1875 152.699219 63.402344 153.4375 C 62.617188 154.175781 62.578125 155.402344 63.3125 156.1875 C 67.894531 161.082031 71.9375 164.824219 76.238281 167.8125 L 76.363281 167.890625 C 80.652344 170.855469 85.160156 173.035156 90.660156 174.8125 C 125.894531 186.191406 172.410156 170.894531 217.75 155.980469 C 280.785156 135.242188 341.519531 115.265625 363.738281 170.566406 C 364.136719 171.558594 365.269531 172.050781 366.269531 171.648438 C 367.273438 171.25 367.757812 170.117188 367.351562 169.113281 C 343.777344 110.4375 281.34375 130.972656 216.546875 152.289062 C 171.789062 167.015625 125.882812 182.117188 91.839844 171.121094 C 86.714844 169.464844 82.527344 167.441406 78.566406 164.707031 L 78.453125 164.621094 C 74.425781 161.820312 70.566406 158.242188 66.160156 153.53125 Z M 66.15625 153.527344 " fill-opacity="1" fill-rule="evenodd"/></g></g></g><g fill="#101010" fill-opacity="1"><g transform="translate(152.280652, 260.039924)"><g><path d="M 0.546875 -12.734375 L 2 -12.734375 L 5.375 -2.09375 L 8.828125 -12.734375 L 10.109375 -12.734375 L 13.5625 -2.09375 L 16.921875 -12.734375 L 18.390625 -12.734375 L 14.203125 0 L 12.828125 0 L 9.46875 -10.65625 L 6.09375 0 L 4.734375 0 Z M 0.546875 -12.734375 "/></g></g></g><g fill="#101010" fill-opacity="1"><g transform="translate(182.852008, 260.039924)"><g><path d="M 1.90625 -12.734375 L 3.28125 -12.734375 L 3.28125 0 L 1.90625 0 Z M 1.90625 -12.734375 "/></g></g></g><g fill="#101010" fill-opacity="1"><g transform="translate(199.686544, 260.039924)"><g><path d="M 1.90625 -12.734375 L 3.28125 -12.734375 L 3.28125 -1.28125 L 9.828125 -1.28125 L 9.828125 0 L 1.90625 0 Z M 1.90625 -12.734375 "/></g></g></g><g fill="#101010" fill-opacity="1"><g transform="translate(221.524558, 260.039924)"><g><path d="M 5.09375 0.1875 C 4.363281 0.1875 3.726562 0.0859375 3.1875 -0.109375 C 2.65625 -0.304688 2.210938 -0.523438 1.859375 -0.765625 C 1.441406 -1.046875 1.09375 -1.367188 0.8125 -1.734375 L 1.640625 -2.65625 C 1.867188 -2.351562 2.144531 -2.09375 2.46875 -1.875 C 2.75 -1.664062 3.109375 -1.484375 3.546875 -1.328125 C 3.984375 -1.171875 4.5 -1.09375 5.09375 -1.09375 C 6.050781 -1.09375 6.773438 -1.3125 7.265625 -1.75 C 7.765625 -2.195312 8.015625 -2.765625 8.015625 -3.453125 C 8.015625 -3.867188 7.910156 -4.207031 7.703125 -4.46875 C 7.503906 -4.726562 7.242188 -4.945312 6.921875 -5.125 C 6.597656 -5.3125 6.226562 -5.46875 5.8125 -5.59375 C 5.40625 -5.71875 4.984375 -5.847656 4.546875 -5.984375 C 4.109375 -6.117188 3.679688 -6.269531 3.265625 -6.4375 C 2.859375 -6.601562 2.492188 -6.816406 2.171875 -7.078125 C 1.847656 -7.335938 1.585938 -7.65625 1.390625 -8.03125 C 1.191406 -8.414062 1.09375 -8.894531 1.09375 -9.46875 C 1.09375 -9.925781 1.1875 -10.363281 1.375 -10.78125 C 1.5625 -11.195312 1.832031 -11.5625 2.1875 -11.875 C 2.550781 -12.195312 2.984375 -12.453125 3.484375 -12.640625 C 3.984375 -12.828125 4.550781 -12.921875 5.1875 -12.921875 C 5.800781 -12.921875 6.335938 -12.835938 6.796875 -12.671875 C 7.265625 -12.503906 7.65625 -12.316406 7.96875 -12.109375 C 8.332031 -11.859375 8.648438 -11.582031 8.921875 -11.28125 L 8.015625 -10.375 C 7.816406 -10.601562 7.578125 -10.816406 7.296875 -11.015625 C 7.054688 -11.171875 6.757812 -11.316406 6.40625 -11.453125 C 6.0625 -11.585938 5.65625 -11.65625 5.1875 -11.65625 C 4.75 -11.65625 4.359375 -11.59375 4.015625 -11.46875 C 3.679688 -11.34375 3.398438 -11.179688 3.171875 -10.984375 C 2.941406 -10.785156 2.765625 -10.554688 2.640625 -10.296875 C 2.515625 -10.035156 2.453125 -9.757812 2.453125 -9.46875 C 2.453125 -8.914062 2.625 -8.488281 2.96875 -8.1875 C 3.3125 -7.894531 3.738281 -7.648438 4.25 -7.453125 C 4.769531 -7.265625 5.328125 -7.09375 5.921875 -6.9375 C 6.515625 -6.78125 7.066406 -6.570312 7.578125 -6.3125 C 8.097656 -6.050781 8.523438 -5.695312 8.859375 -5.25 C 9.203125 -4.8125 9.375 -4.210938 9.375 -3.453125 C 9.375 -2.929688 9.28125 -2.445312 9.09375 -2 C 8.90625 -1.5625 8.628906 -1.175781 8.265625 -0.84375 C 7.898438 -0.519531 7.445312 -0.265625 6.90625 -0.078125 C 6.375 0.0976562 5.769531 0.1875 5.09375 0.1875 Z M 5.09375 0.1875 "/></g></g></g><g fill="#101010" fill-opacity="1"><g transform="translate(243.453538, 260.039924)"><g><path d="M 7.640625 0.1875 C 6.734375 0.1875 5.878906 0.015625 5.078125 -0.328125 C 4.285156 -0.671875 3.59375 -1.140625 3 -1.734375 C 2.40625 -2.328125 1.9375 -3.019531 1.59375 -3.8125 C 1.257812 -4.601562 1.09375 -5.457031 1.09375 -6.375 C 1.09375 -7.28125 1.257812 -8.128906 1.59375 -8.921875 C 1.9375 -9.722656 2.40625 -10.421875 3 -11.015625 C 3.59375 -11.609375 4.285156 -12.070312 5.078125 -12.40625 C 5.878906 -12.75 6.734375 -12.921875 7.640625 -12.921875 C 8.554688 -12.921875 9.410156 -12.75 10.203125 -12.40625 C 10.992188 -12.070312 11.6875 -11.609375 12.28125 -11.015625 C 12.875 -10.421875 13.34375 -9.722656 13.6875 -8.921875 C 14.03125 -8.128906 14.203125 -7.28125 14.203125 -6.375 C 14.203125 -5.457031 14.03125 -4.601562 13.6875 -3.8125 C 13.34375 -3.019531 12.875 -2.328125 12.28125 -1.734375 C 11.6875 -1.140625 10.992188 -0.671875 10.203125 -0.328125 C 9.410156 0.015625 8.554688 0.1875 7.640625 0.1875 Z M 7.640625 -1.09375 C 8.367188 -1.09375 9.046875 -1.222656 9.671875 -1.484375 C 10.304688 -1.753906 10.859375 -2.125 11.328125 -2.59375 C 11.796875 -3.070312 12.160156 -3.632812 12.421875 -4.28125 C 12.691406 -4.925781 12.828125 -5.625 12.828125 -6.375 C 12.828125 -7.125 12.691406 -7.816406 12.421875 -8.453125 C 12.160156 -9.097656 11.796875 -9.65625 11.328125 -10.125 C 10.859375 -10.601562 10.304688 -10.976562 9.671875 -11.25 C 9.046875 -11.519531 8.367188 -11.65625 7.640625 -11.65625 C 6.910156 -11.65625 6.226562 -11.519531 5.59375 -11.25 C 4.96875 -10.976562 4.421875 -10.601562 3.953125 -10.125 C 3.492188 -9.65625 3.128906 -9.097656 2.859375 -8.453125 C 2.585938 -7.816406 2.453125 -7.125 2.453125 -6.375 C 2.453125 -5.625 2.585938 -4.925781 2.859375 -4.28125 C 3.128906 -3.632812 3.492188 -3.070312 3.953125 -2.59375 C 4.421875 -2.125 4.96875 -1.753906 5.59375 -1.484375 C 6.226562 -1.222656 6.910156 -1.09375 7.640625 -1.09375 Z M 7.640625 -1.09375 "/></g></g></g><g fill="#101010" fill-opacity="1"><g transform="translate(270.385991, 260.039924)"><g><path d="M 1.90625 -12.734375 L 3.09375 -12.734375 L 10.921875 -2.453125 L 10.921875 -12.734375 L 12.28125 -12.734375 L 12.28125 0 L 11.109375 0 L 3.28125 -10.28125 L 3.28125 0 L 1.90625 0 Z M 1.90625 -12.734375 "/></g></g></g></svg>